<svg width="42" height="42" viewBox="0 0 42 42" fill="none" xmlns="http://www.w3.org/2000/svg">
<rect width="42" height="42" rx="10" fill="#40423F"/>
<path d="M22.2373 4.01274L37.9873 19.7627C39.0898 20.8652 38.3093 22.75 36.75 22.75H35V33.25C35 34.6424 34.4469 35.9777 33.4623 36.9623C32.4778 37.9469 31.1424 38.5 29.75 38.5H28V26.25C28.0001 24.9109 27.4884 23.6223 26.5698 22.648C25.6511 21.6737 24.3948 21.0873 23.058 21.0087L22.75 21H19.25C17.8576 21 16.5223 21.5531 15.5377 22.5377C14.5531 23.5222 14 24.8576 14 26.25V38.5H12.25C10.8576 38.5 9.52226 37.9469 8.5377 36.9623C7.55313 35.9777 7.00001 34.6424 7.00001 33.25V22.75H5.25001C3.69251 22.75 2.91026 20.8652 4.01276 19.7627L19.7628 4.01274C20.0909 3.68467 20.536 3.50037 21 3.50037C21.464 3.50037 21.9091 3.68467 22.2373 4.01274ZM22.75 24.5C23.2141 24.5 23.6593 24.6844 23.9874 25.0126C24.3156 25.3407 24.5 25.7859 24.5 26.25V38.5H17.5V26.25C17.5001 25.8214 17.6574 25.4077 17.9423 25.0873C18.2271 24.767 18.6196 24.5624 19.0453 24.5122L19.25 24.5H22.75Z" fill="white"/>
</svg>
