<svg width="42" height="42" viewBox="0 0 42 42" fill="none" xmlns="http://www.w3.org/2000/svg">
<g clip-path="url(#clip0_1092_249)">
<rect width="42" height="42" rx="10" fill="#40423F"/>
<path d="M17.5 17.6837C17.5 17.4298 17.55 17.1783 17.6472 16.9437C17.7444 16.7091 17.8868 16.4959 18.0664 16.3164C18.2459 16.1368 18.4591 15.9944 18.6937 15.8972C18.9283 15.8 19.1798 15.75 19.4337 15.75H22.5663C22.8202 15.75 23.0717 15.8 23.3063 15.8972C23.5409 15.9944 23.7541 16.1368 23.9336 16.3164C24.1132 16.4959 24.2556 16.7091 24.3528 16.9437C24.45 17.1783 24.5 17.4298 24.5 17.6837V34.8163C24.5 35.3291 24.2963 35.821 23.9336 36.1836C23.571 36.5463 23.0791 36.75 22.5663 36.75H19.4337C18.9209 36.75 18.429 36.5463 18.0664 36.1836C17.7037 35.821 17.5 35.3291 17.5 34.8163V17.6837Z" stroke="white" stroke-width="2" stroke-linecap="round" stroke-linejoin="round"/>
<path d="M29.75 7.18375C29.75 6.67089 29.9537 6.17903 30.3164 5.81638C30.679 5.45373 31.1709 5.25 31.6837 5.25H34.8163C35.3291 5.25 35.821 5.45373 36.1836 5.81638C36.5463 6.17903 36.75 6.67089 36.75 7.18375V34.8163C36.75 35.3291 36.5463 35.821 36.1836 36.1836C35.821 36.5463 35.3291 36.75 34.8163 36.75H31.6837C31.1709 36.75 30.679 36.5463 30.3164 36.1836C29.9537 35.821 29.75 35.3291 29.75 34.8163V7.18375Z" stroke="white" stroke-width="2" stroke-linecap="round" stroke-linejoin="round"/>
<path d="M5.25 33.25C5.25 34.1783 5.61875 35.0685 6.27513 35.7249C6.9315 36.3813 7.82174 36.75 8.75 36.75C9.67826 36.75 10.5685 36.3813 11.2249 35.7249C11.8813 35.0685 12.25 34.1783 12.25 33.25C12.25 32.3217 11.8813 31.4315 11.2249 30.7751C10.5685 30.1187 9.67826 29.75 8.75 29.75C7.82174 29.75 6.9315 30.1187 6.27513 30.7751C5.61875 31.4315 5.25 32.3217 5.25 33.25Z" stroke="white" stroke-width="2" stroke-linecap="round" stroke-linejoin="round"/>
</g>
<defs>
<clipPath id="clip0_1092_249">
<rect width="42" height="42" rx="10" fill="white"/>
</clipPath>
</defs>
</svg>
