<svg width="77" height="19" viewBox="0 0 77 19" fill="none" xmlns="http://www.w3.org/2000/svg">
<path d="M3.70203 6.61426H6.15041V16.5518C6.15041 17.904 5.05423 19.0002 3.70203 19.0002V6.61426Z" fill="#FC7A56"/>
<path d="M10.0389 2H12.4873V9.34515C12.4873 10.6974 11.3911 11.7935 10.0389 11.7935V2Z" fill="#FC7A56"/>
<path d="M8.1665 14.0977V11.6493L15.5117 11.6493C16.8639 11.6493 17.96 12.7455 17.96 14.0977L8.1665 14.0977Z" fill="#FC7A56"/>
<path d="M9.79346 5.3125V7.76088L2.44831 7.76088C1.09611 7.76088 -7.43866e-05 6.6647 -7.43866e-05 5.3125L9.79346 5.3125Z" fill="#FC7A56"/>
<path d="M5.57422 7.76074V5.31236H9.46283C10.815 5.31236 11.9112 6.40854 11.9112 7.76074H5.57422Z" fill="#FC7A56"/>
<circle cx="8.09471" cy="9.70519" r="4.39269" fill="#FC7A56"/>
<circle cx="8.13463" cy="9.48375" r="2.2777" fill="#4E4E4E"/>
<path d="M14.94 10V3H17.82C18.44 3 18.97 3.1 19.41 3.3C19.8567 3.5 20.2 3.78667 20.44 4.16C20.68 4.53333 20.8 4.97667 20.8 5.49C20.8 6.00333 20.68 6.44667 20.44 6.82C20.2 7.19333 19.8567 7.48 19.41 7.68C18.97 7.88 18.44 7.98 17.82 7.98H15.66L16.24 7.37V10H14.94ZM16.24 7.51L15.66 6.88H17.76C18.3333 6.88 18.7633 6.76 19.05 6.52C19.3433 6.27333 19.49 5.93 19.49 5.49C19.49 5.04333 19.3433 4.7 19.05 4.46C18.7633 4.22 18.3333 4.1 17.76 4.1H15.66L16.24 3.46V7.51ZM21.9294 10V4.66H23.1194V6.13L22.9794 5.7C23.1394 5.34 23.3894 5.06667 23.7294 4.88C24.076 4.69333 24.506 4.6 25.0194 4.6V5.79C24.966 5.77667 24.916 5.77 24.8694 5.77C24.8227 5.76333 24.776 5.76 24.7294 5.76C24.256 5.76 23.8794 5.9 23.5994 6.18C23.3194 6.45333 23.1794 6.86333 23.1794 7.41V10H21.9294ZM28.4309 10.07C27.8843 10.07 27.3976 9.95333 26.9709 9.72C26.5443 9.48 26.2076 9.15333 25.9609 8.74C25.7143 8.32667 25.5909 7.85667 25.5909 7.33C25.5909 6.79667 25.7143 6.32667 25.9609 5.92C26.2076 5.50667 26.5443 5.18333 26.9709 4.95C27.3976 4.71667 27.8843 4.6 28.4309 4.6C28.9843 4.6 29.4743 4.71667 29.9009 4.95C30.3343 5.18333 30.6709 5.50333 30.9109 5.91C31.1576 6.31667 31.2809 6.79 31.2809 7.33C31.2809 7.85667 31.1576 8.32667 30.9109 8.74C30.6709 9.15333 30.3343 9.48 29.9009 9.72C29.4743 9.95333 28.9843 10.07 28.4309 10.07ZM28.4309 9C28.7376 9 29.0109 8.93333 29.2509 8.8C29.4909 8.66667 29.6776 8.47333 29.8109 8.22C29.9509 7.96667 30.0209 7.67 30.0209 7.33C30.0209 6.98333 29.9509 6.68667 29.8109 6.44C29.6776 6.18667 29.4909 5.99333 29.2509 5.86C29.0109 5.72667 28.7409 5.66 28.4409 5.66C28.1343 5.66 27.8609 5.72667 27.6209 5.86C27.3876 5.99333 27.2009 6.18667 27.0609 6.44C26.9209 6.68667 26.8509 6.98333 26.8509 7.33C26.8509 7.67 26.9209 7.96667 27.0609 8.22C27.2009 8.47333 27.3876 8.66667 27.6209 8.8C27.8609 8.93333 28.1309 9 28.4309 9ZM35.8363 10.1C35.3029 10.1 34.8063 10.0133 34.3463 9.84C33.8929 9.66 33.4963 9.41 33.1563 9.09C32.8229 8.76333 32.5629 8.38 32.3763 7.94C32.1896 7.5 32.0963 7.02 32.0963 6.5C32.0963 5.98 32.1896 5.5 32.3763 5.06C32.5629 4.62 32.8263 4.24 33.1663 3.92C33.5063 3.59333 33.9029 3.34333 34.3563 3.17C34.8096 2.99 35.3063 2.9 35.8463 2.9C36.4196 2.9 36.9429 3 37.4163 3.2C37.8896 3.39333 38.2896 3.68333 38.6163 4.07L37.7763 4.86C37.5229 4.58667 37.2396 4.38333 36.9263 4.25C36.6129 4.11 36.2729 4.04 35.9063 4.04C35.5396 4.04 35.2029 4.1 34.8963 4.22C34.5963 4.34 34.3329 4.51 34.1063 4.73C33.8863 4.95 33.7129 5.21 33.5863 5.51C33.4663 5.81 33.4063 6.14 33.4063 6.5C33.4063 6.86 33.4663 7.19 33.5863 7.49C33.7129 7.79 33.8863 8.05 34.1063 8.27C34.3329 8.49 34.5963 8.66 34.8963 8.78C35.2029 8.9 35.5396 8.96 35.9063 8.96C36.2729 8.96 36.6129 8.89333 36.9263 8.76C37.2396 8.62 37.5229 8.41 37.7763 8.13L38.6163 8.93C38.2896 9.31 37.8896 9.6 37.4163 9.8C36.9429 10 36.4163 10.1 35.8363 10.1ZM41.9368 10.07C41.3901 10.07 40.9035 9.95333 40.4768 9.72C40.0501 9.48 39.7135 9.15333 39.4668 8.74C39.2201 8.32667 39.0968 7.85667 39.0968 7.33C39.0968 6.79667 39.2201 6.32667 39.4668 5.92C39.7135 5.50667 40.0501 5.18333 40.4768 4.95C40.9035 4.71667 41.3901 4.6 41.9368 4.6C42.4901 4.6 42.9801 4.71667 43.4068 4.95C43.8401 5.18333 44.1768 5.50333 44.4168 5.91C44.6635 6.31667 44.7868 6.79 44.7868 7.33C44.7868 7.85667 44.6635 8.32667 44.4168 8.74C44.1768 9.15333 43.8401 9.48 43.4068 9.72C42.9801 9.95333 42.4901 10.07 41.9368 10.07ZM41.9368 9C42.2435 9 42.5168 8.93333 42.7568 8.8C42.9968 8.66667 43.1835 8.47333 43.3168 8.22C43.4568 7.96667 43.5268 7.67 43.5268 7.33C43.5268 6.98333 43.4568 6.68667 43.3168 6.44C43.1835 6.18667 42.9968 5.99333 42.7568 5.86C42.5168 5.72667 42.2468 5.66 41.9468 5.66C41.6401 5.66 41.3668 5.72667 41.1268 5.86C40.8935 5.99333 40.7068 6.18667 40.5668 6.44C40.4268 6.68667 40.3568 6.98333 40.3568 7.33C40.3568 7.67 40.4268 7.96667 40.5668 8.22C40.7068 8.47333 40.8935 8.66667 41.1268 8.8C41.3668 8.93333 41.6368 9 41.9368 9Z" fill="white"/>
<path d="M46.1021 10V3H47.4021V8.9H51.0621V10H46.1021ZM54.4296 10.07C53.8363 10.07 53.3163 9.95333 52.8696 9.72C52.4296 9.48 52.0863 9.15333 51.8396 8.74C51.5996 8.32667 51.4796 7.85667 51.4796 7.33C51.4796 6.79667 51.5963 6.32667 51.8296 5.92C52.0696 5.50667 52.3963 5.18333 52.8096 4.95C53.2296 4.71667 53.7063 4.6 54.2396 4.6C54.7596 4.6 55.2229 4.71333 55.6296 4.94C56.0363 5.16667 56.3563 5.48667 56.5896 5.9C56.8229 6.31333 56.9396 6.8 56.9396 7.36C56.9396 7.41333 56.9363 7.47333 56.9296 7.54C56.9296 7.60667 56.9263 7.67 56.9196 7.73H52.4696V6.9H56.2596L55.7696 7.16C55.7763 6.85333 55.7129 6.58333 55.5796 6.35C55.4463 6.11667 55.2629 5.93333 55.0296 5.8C54.8029 5.66667 54.5396 5.6 54.2396 5.6C53.9329 5.6 53.6629 5.66667 53.4296 5.8C53.2029 5.93333 53.0229 6.12 52.8896 6.36C52.7629 6.59333 52.6996 6.87 52.6996 7.19V7.39C52.6996 7.71 52.7729 7.99333 52.9196 8.24C53.0663 8.48667 53.2729 8.67667 53.5396 8.81C53.8063 8.94333 54.1129 9.01 54.4596 9.01C54.7596 9.01 55.0296 8.96333 55.2696 8.87C55.5096 8.77667 55.7229 8.63 55.9096 8.43L56.5796 9.2C56.3396 9.48 56.0363 9.69667 55.6696 9.85C55.3096 9.99667 54.8963 10.07 54.4296 10.07ZM61.2838 10V8.92L61.2138 8.69V6.8C61.2138 6.43333 61.1038 6.15 60.8838 5.95C60.6638 5.74333 60.3305 5.64 59.8838 5.64C59.5838 5.64 59.2872 5.68667 58.9938 5.78C58.7072 5.87333 58.4638 6.00333 58.2638 6.17L57.7738 5.26C58.0605 5.04 58.4005 4.87667 58.7938 4.77C59.1938 4.65667 59.6072 4.6 60.0338 4.6C60.8072 4.6 61.4038 4.78667 61.8238 5.16C62.2505 5.52667 62.4638 6.09667 62.4638 6.87V10H61.2838ZM59.6038 10.07C59.2038 10.07 58.8538 10.0033 58.5538 9.87C58.2538 9.73 58.0205 9.54 57.8538 9.3C57.6938 9.05333 57.6138 8.77667 57.6138 8.47C57.6138 8.17 57.6838 7.9 57.8238 7.66C57.9705 7.42 58.2072 7.23 58.5338 7.09C58.8605 6.95 59.2938 6.88 59.8338 6.88H61.3838V7.71H59.9238C59.4972 7.71 59.2105 7.78 59.0638 7.92C58.9172 8.05333 58.8438 8.22 58.8438 8.42C58.8438 8.64667 58.9338 8.82667 59.1138 8.96C59.2938 9.09333 59.5438 9.16 59.8638 9.16C60.1705 9.16 60.4438 9.09 60.6838 8.95C60.9305 8.81 61.1072 8.60333 61.2138 8.33L61.4238 9.08C61.3038 9.39333 61.0872 9.63667 60.7738 9.81C60.4672 9.98333 60.0772 10.07 59.6038 10.07ZM64.068 10V4.66H65.258V6.13L65.118 5.7C65.278 5.34 65.528 5.06667 65.868 4.88C66.2147 4.69333 66.6447 4.6 67.158 4.6V5.79C67.1047 5.77667 67.0547 5.77 67.008 5.77C66.9614 5.76333 66.9147 5.76 66.868 5.76C66.3947 5.76 66.018 5.9 65.738 6.18C65.458 6.45333 65.318 6.86333 65.318 7.41V10H64.068ZM71.2484 4.6C71.6751 4.6 72.0551 4.68333 72.3884 4.85C72.7284 5.01667 72.9951 5.27333 73.1884 5.62C73.3818 5.96 73.4784 6.4 73.4784 6.94V10H72.2284V7.1C72.2284 6.62667 72.1151 6.27333 71.8884 6.04C71.6684 5.80667 71.3584 5.69 70.9584 5.69C70.6651 5.69 70.4051 5.75 70.1784 5.87C69.9518 5.99 69.7751 6.17 69.6484 6.41C69.5284 6.64333 69.4684 6.94 69.4684 7.3V10H68.2184V4.66H69.4084V6.1L69.1984 5.66C69.3851 5.32 69.6551 5.06 70.0084 4.88C70.3684 4.69333 70.7818 4.6 71.2484 4.6ZM75.4641 10.07C75.2375 10.07 75.0441 9.99333 74.8841 9.84C74.7241 9.68 74.6441 9.48 74.6441 9.24C74.6441 8.98667 74.7241 8.78667 74.8841 8.64C75.0441 8.48667 75.2375 8.41 75.4641 8.41C75.6908 8.41 75.8841 8.48667 76.0441 8.64C76.2041 8.78667 76.2841 8.98667 76.2841 9.24C76.2841 9.48 76.2041 9.68 76.0441 9.84C75.8841 9.99333 75.6908 10.07 75.4641 10.07Z" fill="#FC7A56"/>
</svg>
