<svg width="56" height="53" viewBox="0 0 56 53" fill="none" xmlns="http://www.w3.org/2000/svg">
<path d="M11.377 14.1803H18.9015V44.7212C18.9015 48.8769 15.5327 52.2457 11.377 52.2457V14.1803Z" fill="#FC7A56"/>
<path d="M30.8523 0H38.3769V22.5737C38.3769 26.7294 35.008 30.0982 30.8523 30.0982V0Z" fill="#FC7A56"/>
<path d="M25.0982 37.1802V29.6556L47.6719 29.6556C51.8276 29.6556 55.1965 33.0245 55.1965 37.1802L25.0982 37.1802Z" fill="#FC7A56"/>
<path d="M30.0982 10.1803V17.7049L7.52456 17.7049C3.36885 17.7049 0 14.336 0 10.1803L30.0982 10.1803Z" fill="#FC7A56"/>
<path d="M17.131 17.7048V10.1803H29.0818C33.2375 10.1803 36.6064 13.5491 36.6064 17.7048H17.131Z" fill="#FC7A56"/>
<circle cx="24.8769" cy="23.6802" r="13.4999" fill="#FC7A56"/>
<circle cx="25" cy="23" r="7" fill="#40423F"/>
</svg>
