<svg width="34" height="34" viewBox="0 0 34 34" fill="none" xmlns="http://www.w3.org/2000/svg">
<path d="M13.5 18.75C13.5 19.6783 13.8687 20.5685 14.5251 21.2249C15.1815 21.8813 16.0717 22.25 17 22.25C17.9283 22.25 18.8185 21.8813 19.4749 21.2249C20.1313 20.5685 20.5 19.6783 20.5 18.75C20.5 17.8217 20.1313 16.9315 19.4749 16.2751C18.8185 15.6187 17.9283 15.25 17 15.25C16.0717 15.25 15.1815 15.6187 14.5251 16.2751C13.8687 16.9315 13.5 17.8217 13.5 18.75Z" stroke="white" stroke-width="2" stroke-linecap="round" stroke-linejoin="round"/>
<path d="M10 32.75V31C10 30.0717 10.3687 29.1815 11.0251 28.5251C11.6815 27.8687 12.5717 27.5 13.5 27.5H20.5C21.4283 27.5 22.3185 27.8687 22.9749 28.5251C23.6313 29.1815 24 30.0717 24 31V32.75" stroke="white" stroke-width="2" stroke-linecap="round" stroke-linejoin="round"/>
<path d="M22.25 4.75C22.25 5.67826 22.6187 6.5685 23.2751 7.22487C23.9315 7.88125 24.8217 8.25 25.75 8.25C26.6783 8.25 27.5685 7.88125 28.2249 7.22487C28.8813 6.5685 29.25 5.67826 29.25 4.75C29.25 3.82174 28.8813 2.9315 28.2249 2.27513C27.5685 1.61875 26.6783 1.25 25.75 1.25C24.8217 1.25 23.9315 1.61875 23.2751 2.27513C22.6187 2.9315 22.25 3.82174 22.25 4.75Z" stroke="white" stroke-width="2" stroke-linecap="round" stroke-linejoin="round"/>
<path d="M25.75 13.5H29.25C30.1783 13.5 31.0685 13.8687 31.7249 14.5251C32.3813 15.1815 32.75 16.0717 32.75 17V18.75" stroke="white" stroke-width="2" stroke-linecap="round" stroke-linejoin="round"/>
<path d="M4.75 4.75C4.75 5.67826 5.11875 6.5685 5.77513 7.22487C6.4315 7.88125 7.32174 8.25 8.25 8.25C9.17826 8.25 10.0685 7.88125 10.7249 7.22487C11.3813 6.5685 11.75 5.67826 11.75 4.75C11.75 3.82174 11.3813 2.9315 10.7249 2.27513C10.0685 1.61875 9.17826 1.25 8.25 1.25C7.32174 1.25 6.4315 1.61875 5.77513 2.27513C5.11875 2.9315 4.75 3.82174 4.75 4.75Z" stroke="white" stroke-width="2" stroke-linecap="round" stroke-linejoin="round"/>
<path d="M1.25 18.75V17C1.25 16.0717 1.61875 15.1815 2.27513 14.5251C2.9315 13.8687 3.82174 13.5 4.75 13.5H8.25" stroke="white" stroke-width="2" stroke-linecap="round" stroke-linejoin="round"/>
</svg>
