<svg width="24" height="24" viewBox="0 0 24 24" fill="none" xmlns="http://www.w3.org/2000/svg">
<g clip-path="url(#clip0_1231_242)">
<path d="M3 11.5C3 12.6162 3.21986 13.7215 3.64702 14.7528C4.07419 15.7841 4.70029 16.7211 5.48959 17.5104C6.27889 18.2997 7.21592 18.9258 8.24719 19.353C9.27846 19.7801 10.3838 20 11.5 20C12.6162 20 13.7215 19.7801 14.7528 19.353C15.7841 18.9258 16.7211 18.2997 17.5104 17.5104C18.2997 16.7211 18.9258 15.7841 19.353 14.7528C19.7801 13.7215 20 12.6162 20 11.5C20 10.3838 19.7801 9.27846 19.353 8.24719C18.9258 7.21592 18.2997 6.27889 17.5104 5.48959C16.7211 4.70029 15.7841 4.07419 14.7528 3.64702C13.7215 3.21986 12.6162 3 11.5 3C10.3838 3 9.27846 3.21986 8.24719 3.64702C7.21592 4.07419 6.27889 4.70029 5.48959 5.48959C4.70029 6.27889 4.07419 7.21592 3.64702 8.24719C3.21986 9.27846 3 10.3838 3 11.5Z" stroke="white" stroke-width="2" stroke-linecap="round" stroke-linejoin="round"/>
<path d="M21 21L18 18" stroke="white" stroke-width="2" stroke-linecap="round" stroke-linejoin="round"/>
</g>
<defs>
<clipPath id="clip0_1231_242">
<rect width="24" height="24" fill="white"/>
</clipPath>
</defs>
</svg>
