<svg width="42" height="42" viewBox="0 0 42 42" fill="none" xmlns="http://www.w3.org/2000/svg">
<g clip-path="url(#clip0_1092_269)">
<rect width="42" height="42" rx="10" fill="#40423F"/>
<path d="M18.0687 7.55475C18.8142 4.48175 23.1858 4.48175 23.9313 7.55475C24.0431 8.0164 24.2624 8.44511 24.5712 8.806C24.8801 9.16689 25.2698 9.44975 25.7086 9.63156C26.1475 9.81337 26.623 9.88899 27.0966 9.85227C27.5702 9.81555 28.0284 9.66753 28.434 9.42025C31.1342 7.77525 34.2265 10.8657 32.5815 13.5677C32.3346 13.9731 32.1868 14.4311 32.1502 14.9044C32.1135 15.3776 32.1891 15.8528 32.3707 16.2914C32.5523 16.73 32.8348 17.1195 33.1953 17.4283C33.5558 17.7372 33.984 17.9566 34.4453 18.0687C37.5183 18.8142 37.5183 23.1858 34.4453 23.9313C33.9836 24.0431 33.5549 24.2624 33.194 24.5712C32.8331 24.8801 32.5503 25.2698 32.3684 25.7086C32.1866 26.1475 32.111 26.623 32.1477 27.0966C32.1844 27.5702 32.3325 28.0284 32.5798 28.434C34.2248 31.1342 31.1342 34.2265 28.4322 32.5815C28.0269 32.3346 27.5689 32.1868 27.0956 32.1502C26.6224 32.1135 26.1472 32.1891 25.7086 32.3707C25.27 32.5523 24.8805 32.8348 24.5717 33.1953C24.2628 33.5558 24.0434 33.984 23.9313 34.4453C23.1858 37.5183 18.8142 37.5183 18.0687 34.4453C17.9569 33.9836 17.7376 33.5549 17.4288 33.194C17.1199 32.8331 16.7302 32.5503 16.2914 32.3684C15.8525 32.1866 15.377 32.111 14.9034 32.1477C14.4298 32.1844 13.9716 32.3325 13.566 32.5798C10.8657 34.2248 7.7735 31.1342 9.4185 28.4322C9.66543 28.0269 9.81321 27.5689 9.84985 27.0956C9.88648 26.6224 9.81093 26.1472 9.62933 25.7086C9.44773 25.27 9.16521 24.8805 8.80473 24.5717C8.44425 24.2628 8.01599 24.0434 7.55475 23.9313C4.48175 23.1858 4.48175 18.8142 7.55475 18.0687C8.0164 17.9569 8.44511 17.7376 8.806 17.4288C9.16689 17.1199 9.44975 16.7302 9.63156 16.2914C9.81337 15.8525 9.88899 15.377 9.85227 14.9034C9.81555 14.4298 9.66753 13.9716 9.42025 13.566C7.77525 10.8657 10.8657 7.7735 13.5677 9.4185C15.3177 10.4825 17.5857 9.541 18.0687 7.55475Z" stroke="white" stroke-width="2" stroke-linecap="round" stroke-linejoin="round"/>
<path d="M15.75 21C15.75 22.3924 16.3031 23.7277 17.2877 24.7123C18.2723 25.6969 19.6076 26.25 21 26.25C22.3924 26.25 23.7277 25.6969 24.7123 24.7123C25.6969 23.7277 26.25 22.3924 26.25 21C26.25 19.6076 25.6969 18.2723 24.7123 17.2877C23.7277 16.3031 22.3924 15.75 21 15.75C19.6076 15.75 18.2723 16.3031 17.2877 17.2877C16.3031 18.2723 15.75 19.6076 15.75 21Z" stroke="white" stroke-width="2" stroke-linecap="round" stroke-linejoin="round"/>
</g>
<defs>
<clipPath id="clip0_1092_269">
<rect width="42" height="42" rx="10" fill="white"/>
</clipPath>
</defs>
</svg>
